<?xml version="1.0" encoding="UTF-8"?>
<svg id="Capa_1" data-name="Capa 1" xmlns="http://www.w3.org/2000/svg" viewBox="0 0 333.51 291.81">
  <defs>
    <style>
      .cls-1 {
        fill: #227432;
      }

      .cls-2 {
        fill: #224c22;
      }
    </style>
  </defs>
  <path class="cls-2" d="M124.62,121.8H8.65c-5.9,0-10.07,5.78-8.2,11.38l50.94,152.72c1.18,3.53,4.48,5.91,8.2,5.91h35.08c5.9,0,10.07-5.78,8.2-11.38l-13.79-41.35c-1.87-5.6,2.3-11.38,8.2-11.38h14.69c4.85,0,8.75-3.99,8.65-8.84l-.5-22.81c-.1-4.7-3.94-8.46-8.65-8.46h-33.34c-3.72,0-7.03-2.38-8.2-5.91l-2.08-6.24c-1.87-5.6,2.3-11.38,8.2-11.38h48.55c4.78,0,8.65-3.87,8.65-8.65v-24.97c0-4.78-3.87-8.65-8.65-8.65Z"/>
  <path class="cls-1" d="M276.6,109.04c23.8-9.71,34.91-24.5,37.63-50.62,1.79-19.19-17.96-16.87-15.86-52.8,1.13-19.34-38.13,14.79-51.11,49.21-4.98,15.22-6.67,35.77,8.42,51,2.33,2.01,4.51,1.35,5.06-1.52,1-3.24.66-19.13,5.11-18.01,1.49,1.62,1.15,5.24,1.21,7.53-.08,10.12,2.04,17.98,9.18,15.33l.36-.12Z"/>
  <path class="cls-1" d="M295.73,120.36c.11-10.2,3.94-16.45,13.18-21.27,6.82-3.46,8.84,4.16,21.79-1.86,6.97-3.24.11,16.22-10.69,26.03-4.89,4.06-12.22,7.68-20.04,4.34-1.08-.57-1.16-1.47-.18-2.09,1.05-.84,6.96-3.04,5.9-4.51-.81-.31-2.1.34-2.96.65-3.72,1.51-6.93,1.87-7-1.15v-.15Z"/>
  <path class="cls-1" d="M264.87,132.6c13.37,7.2,23.65,17.21,30.86,30.02,7.2,12.81,10.81,27.37,10.81,43.7s-3.6,30.74-10.81,43.71c-7.2,12.97-17.49,23.17-30.86,30.62-13.37,7.44-28.94,11.17-46.71,11.17h-58.11c-7.03,0-12.73-5.7-12.73-12.73v-144.56c0-7.03,5.7-12.73,12.73-12.73h58.11c17.77,0,33.34,3.6,46.71,10.81ZM241.94,234.42c7.04-6.56,10.57-15.93,10.57-28.1s-3.52-21.53-10.57-28.09c-7.05-6.56-16.57-9.85-28.58-9.85h0c-7.03,0-12.73,5.7-12.73,12.73v50.43c0,7.03,5.7,12.73,12.73,12.73h0c12.01,0,21.53-3.28,28.58-9.85Z"/>
</svg>